<?xml version="1.0" encoding="UTF-8"?>
<!DOCTYPE svg PUBLIC "-//W3C//DTD SVG 1.1//EN" "http://www.w3.org/Graphics/SVG/1.1/DTD/svg11.dtd">
<svg version="1.1" xmlns="http://www.w3.org/2000/svg" xmlns:xlink="http://www.w3.org/1999/xlink" x="0" y="0" width="438" height="465" viewBox="0, 0, 438, 465">
  <g id="Layer_1">
    <g>
      <path d="M369.431,115.814 C303.596,121.433 263.187,162.435 265.802,196.181 C266.71,207.855 273.501,217.747 284.301,224.653 C284.316,224.682 284.333,224.738 284.344,224.767 C284.349,224.783 284.352,224.8 284.352,224.817 C284.389,224.935 284.417,225.02 284.417,225.02 C286.132,226.775 287.648,230.22 288.788,233.413 C288.788,233.41 288.782,233.408 288.782,233.405 C287.955,231.492 286.872,229.737 285.58,228.146 C285.453,227.991 285.323,227.844 285.199,227.694 C284.674,227.091 284.126,226.516 283.54,225.974 C283.362,225.805 283.187,225.63 282.998,225.466 C282.259,224.811 281.477,224.187 280.639,223.632 C279.849,223.102 279.051,222.639 278.252,222.232 C277.985,222.092 277.722,221.987 277.455,221.86 C276.932,221.612 276.405,221.369 275.888,221.172 C275.57,221.054 275.25,220.952 274.935,220.851 C274.475,220.692 274.021,220.546 273.558,220.427 C273.219,220.334 272.886,220.263 272.545,220.19 C272.127,220.1 271.712,220.018 271.295,219.953 C270.943,219.899 270.593,219.852 270.243,219.811 C269.868,219.772 269.49,219.744 269.121,219.722 C268.753,219.699 268.389,219.677 268.037,219.677 C267.701,219.671 267.376,219.677 267.052,219.688 C266.674,219.699 266.299,219.71 265.935,219.735 C265.667,219.755 265.416,219.786 265.154,219.817 C264.75,219.86 264.338,219.896 263.946,219.958 L263.94,219.958 C263.683,219.968 263.447,219.953 263.173,219.97 C260.839,220.131 257.455,221.432 253.815,223.35 C253.809,222.656 253.764,220.585 253.552,217.516 C253.767,217.589 253.981,217.653 254.187,217.733 L253.603,212.482 L253.126,212.482 C252.401,205.356 250.917,195.581 247.86,185.391 C245.406,176.189 243.126,172.471 241.934,171.039 C241.76,170.719 241.583,170.36 241.408,170.057 L241.316,170.392 C241.162,170.258 241.067,170.204 241.067,170.204 L240.702,170.715 C240.924,170.169 241.02,169.548 240.978,168.855 C241.24,168.28 241.357,167.869 241.357,167.869 C241.357,167.869 241.291,168.071 240.912,168.383 C240.849,167.989 240.73,167.57 240.566,167.133 C240.511,166.98 240.445,166.824 240.373,166.666 C240.271,166.432 240.153,166.196 240.017,165.95 C239.859,165.666 239.678,165.368 239.48,165.066 C239.382,164.922 239.293,164.784 239.186,164.641 C238.894,164.233 238.56,163.81 238.18,163.37 C238.093,163.273 237.999,163.172 237.913,163.073 C237.471,162.583 236.993,162.081 236.44,161.554 C235.86,161.001 235.317,160.518 234.796,160.073 L234.952,160.064 C234.732,158.896 234.489,157.661 234.232,156.39 C234.178,156.113 234.123,155.834 234.063,155.552 C233.898,154.75 233.731,153.938 233.555,153.107 C231.598,143.771 229.01,132.767 227.19,125.235 C227.538,125.271 227.737,125.286 227.737,125.286 L225.33,117.016 C225.507,117.016 225.674,117 225.85,116.997 C226.715,116.997 227.543,116.95 228.385,116.917 C229.354,116.879 230.329,116.849 231.265,116.776 C232.078,116.709 232.857,116.608 233.645,116.514 C234.548,116.406 235.45,116.305 236.32,116.161 C237.081,116.035 237.809,115.88 238.544,115.727 C239.382,115.553 240.214,115.373 241.02,115.169 C241.725,114.986 242.401,114.78 243.082,114.57 C243.851,114.334 244.615,114.086 245.352,113.818 C245.999,113.578 246.618,113.323 247.238,113.06 C247.948,112.76 248.643,112.451 249.312,112.12 C249.902,111.829 250.471,111.527 251.027,111.211 C251.673,110.855 252.296,110.481 252.901,110.092 C253.428,109.751 253.942,109.407 254.444,109.044 C255.014,108.626 255.573,108.194 256.106,107.75 C256.571,107.366 257.028,106.976 257.468,106.57 C257.976,106.097 258.458,105.606 258.924,105.106 C259.331,104.68 259.734,104.249 260.106,103.805 C260.543,103.277 260.956,102.73 261.353,102.179 C261.695,101.712 262.036,101.25 262.349,100.764 C262.721,100.183 263.051,99.582 263.387,98.977 C263.661,98.476 263.946,97.982 264.191,97.466 C264.499,96.833 264.755,96.171 265.012,95.509 C265.221,94.983 265.45,94.464 265.633,93.922 C265.865,93.227 266.042,92.501 266.237,91.782 C266.377,91.239 266.544,90.706 266.66,90.154 C266.821,89.38 266.925,88.574 267.038,87.773 C267.114,87.24 267.218,86.715 267.269,86.168 C267.357,85.27 267.382,84.337 267.405,83.407 C267.421,82.931 267.467,82.472 267.461,81.988 C267.456,80.562 267.382,79.109 267.227,77.626 C264.75,53.291 259.285,33.43 217.569,17.038 C175.854,0.652 157.477,31.44 157.477,31.44 C157.477,31.44 143.075,12.073 102.851,31.938 C68.08,49.109 72.557,68.19 72.557,68.19 C72.557,68.19 47.729,65.213 31.34,80.608 C14.949,96.001 2.038,120.336 21.407,153.608 C40.771,186.88 55.673,171.485 61.135,175.954 C61.288,176.081 61.448,176.253 61.621,176.469 C61.674,176.532 61.731,176.629 61.784,176.699 C61.905,176.868 62.03,177.033 62.158,177.242 C62.224,177.342 62.295,177.477 62.361,177.587 C62.488,177.806 62.615,178.015 62.749,178.264 C62.815,178.391 62.887,178.543 62.958,178.679 C63.097,178.949 63.237,179.218 63.382,179.52 C63.452,179.669 63.529,179.834 63.6,179.991 C63.751,180.312 63.901,180.636 64.057,180.991 C64.13,181.152 64.201,181.327 64.274,181.493 C64.439,181.874 64.601,182.258 64.775,182.673 C64.838,182.831 64.907,183.001 64.972,183.164 C65.154,183.606 65.337,184.059 65.524,184.529 C65.585,184.693 65.649,184.858 65.711,185.02 C65.907,185.528 66.106,186.042 66.31,186.58 C66.357,186.717 66.413,186.856 66.46,186.995 C66.682,187.578 66.902,188.171 67.122,188.785 C67.162,188.895 67.201,189.012 67.243,189.119 C67.48,189.779 67.719,190.452 67.964,191.143 C67.987,191.214 68.011,191.283 68.035,191.351 C68.298,192.1 68.561,192.86 68.828,193.639 C68.831,193.657 68.839,193.673 68.843,193.691 C70.264,197.848 71.74,202.421 73.189,207.065 C73.103,207.179 73.051,207.243 73.051,207.243 L73.219,207.161 C77.047,219.445 80.685,232.191 82.592,238.997 C82.625,239.106 82.652,239.205 82.68,239.312 C82.794,239.716 82.898,240.097 83.002,240.458 C83.092,240.791 83.187,241.124 83.267,241.412 L80.991,235.357 L81,234.556 C81,234.556 80.831,234.387 80.518,234.094 L80.288,233.478 C80.288,233.478 79.155,232.688 77.543,231.667 C72.851,228.253 63.887,223.474 53.884,227.153 C50.166,228.242 46.348,230.335 43.114,234.178 C41.689,234.883 39.661,236.833 39.29,242.225 C39.251,242.732 39.3,243.234 39.372,243.742 C39.664,248.753 43.77,252.815 47.434,255.468 C48.095,255.964 48.75,256.437 49.359,256.844 C41.962,253.425 28.201,250.762 24.417,266.138 C23.625,269.353 24.13,271.933 25.467,274.018 C26.442,276.153 28.298,278.119 31.707,279.259 C32.359,279.477 33.079,279.64 33.777,279.829 C40.182,282.202 48.401,282.746 53.718,282.816 C50.575,283.192 46.587,284.233 43.168,286.859 C37.603,290.542 33.814,296.788 35.789,306.668 C35.797,306.707 35.815,306.747 35.824,306.783 C36.034,309.724 36.907,312.542 38.997,314.542 C41.244,316.692 44.662,318.47 48.943,319.807 C51.51,320.65 54.344,321.282 57.384,321.694 C64.311,322.724 72.505,322.891 81.368,321.965 C81.651,322.326 81.946,322.685 82.276,323.034 C83.011,323.805 83.732,324.598 84.436,325.401 C84.699,325.7 84.951,326.011 85.209,326.31 C85.642,326.829 86.084,327.334 86.504,327.852 C86.789,328.206 87.057,328.556 87.335,328.905 C87.712,329.385 88.097,329.864 88.461,330.339 C88.74,330.705 89.004,331.072 89.276,331.435 C89.622,331.904 89.974,332.373 90.307,332.833 C90.556,333.183 90.793,333.526 91.037,333.876 C91.371,334.351 91.708,334.827 92.025,335.293 C92.249,335.614 92.454,335.934 92.67,336.255 C92.989,336.728 93.308,337.2 93.604,337.662 C93.804,337.968 93.986,338.261 94.174,338.554 C94.47,339.017 94.771,339.479 95.044,339.925 C95.213,340.19 95.367,340.444 95.529,340.71 C95.743,341.062 95.959,341.412 96.163,341.754 C95.841,342.095 92.684,345.596 88.799,351.809 C88.69,351.983 88.582,352.142 88.469,352.316 C88.411,352.421 88.351,352.528 88.29,352.624 C87.062,354.607 85.775,356.876 84.477,359.448 C83.99,360.408 83.508,361.432 83.023,362.459 C82.948,362.625 82.871,362.777 82.794,362.947 C78.893,371.343 75.287,382.041 73.739,394.743 C73.646,395.389 73.525,395.99 73.439,396.644 C70.506,418.885 76.023,434.232 89.434,443.179 C101.367,451.97 117.118,453.973 127.389,452.593 C127.819,452.607 128.217,452.636 128.653,452.642 C128.653,452.642 128.769,452.642 128.94,452.646 C130.56,452.872 132.24,453.039 133.957,453.138 C136.317,453.363 138.73,453.369 141.275,453.103 C142.582,453.024 143.88,452.9 145.181,452.731 C164.638,452.686 197.843,452.077 225.73,448.979 C268.122,444.268 302.406,424.908 302.406,424.908 C302.406,424.908 298.042,392.847 295.164,381.297 C295.652,381.449 296.975,381.609 299.931,381.7 C303.737,382.239 309.839,382.843 315.931,382.425 C322.061,382.174 327.874,381.051 330.661,378.063 C330.756,377.962 330.858,377.812 330.957,377.68 C332.356,376.534 333.499,375.141 334.266,373.436 C336.199,370.279 336.148,367.393 336.128,367.026 C338.792,355.68 341.554,336.604 343.416,322.422 C344.801,312.765 345.696,305.455 345.82,304.405 C347.975,304.899 349.639,305.184 350.959,305.125 C352.749,305.113 354.402,304.631 354.738,302.967 C354.822,302.54 354.808,302.018 354.738,301.454 C354.96,300.571 355.017,299.496 354.789,298.114 C354.072,293.8 352.362,291.907 351.149,290.254 C351.086,290.127 351.031,290 350.98,289.876 C350.613,288.668 350.35,287.543 350.311,286.598 C350.322,286.315 350.339,286.027 350.373,285.742 C350.502,285.192 350.711,284.637 350.965,284.084 C351.434,283.212 352.1,282.129 352.875,280.887 C353.217,280.393 353.558,279.893 353.906,279.386 C355.9,277.039 358.022,274.522 358.34,270.871 C358.654,269.966 358.908,269.016 359.057,267.966 C359.393,266.493 359.565,265.031 359.444,263.603 C359.42,261.635 359.08,259.445 358.29,256.9 C356.078,249.83 352.043,246.535 348.172,244.995 C348.249,244.927 348.316,244.865 348.39,244.786 C348.598,244.583 348.83,244.352 349.083,244.103 C349.255,243.939 349.445,243.753 349.639,243.567 C349.908,243.31 350.204,243.025 350.511,242.732 C350.698,242.549 350.886,242.371 351.086,242.174 C351.518,241.762 351.993,241.31 352.481,240.851 C352.709,240.636 352.949,240.407 353.189,240.182 C353.71,239.69 354.266,239.175 354.839,238.63 C355.084,238.404 355.344,238.17 355.592,237.935 C356.078,237.49 356.577,237.033 357.09,236.564 C357.381,236.3 357.667,236.034 357.968,235.764 C358.588,235.199 359.232,234.618 359.889,234.031 C360.197,233.761 360.504,233.484 360.823,233.202 C361.548,232.556 362.292,231.904 363.052,231.238 C363.348,230.984 363.656,230.725 363.952,230.465 C364.66,229.855 365.371,229.246 366.099,228.629 C366.384,228.389 366.668,228.146 366.959,227.903 C367.467,227.475 367.984,227.052 368.497,226.625 C374.591,224.286 380.764,221.468 386.962,218.068 C447.603,184.821 435.268,110.204 369.431,115.814" fill="#303053"/>
      <path d="M369.431,115.814 C303.596,121.433 263.187,162.435 265.802,196.181 C266.71,207.855 273.501,217.747 284.301,224.653 C284.316,224.682 284.333,224.738 284.344,224.767 C284.349,224.783 284.352,224.8 284.352,224.817 C284.389,224.935 284.417,225.02 284.417,225.02 C286.132,226.775 287.648,230.22 288.788,233.413 C288.788,233.41 288.782,233.408 288.782,233.405 C287.955,231.492 286.872,229.737 285.58,228.146 C285.453,227.991 285.323,227.844 285.199,227.694 C284.674,227.091 284.126,226.516 283.54,225.974 C283.362,225.805 283.187,225.63 282.998,225.466 C282.259,224.811 281.477,224.187 280.639,223.632 C279.849,223.102 279.051,222.639 278.252,222.232 C277.985,222.092 277.722,221.987 277.455,221.86 C276.932,221.612 276.405,221.369 275.888,221.172 C275.57,221.054 275.25,220.952 274.935,220.851 C274.475,220.692 274.021,220.546 273.558,220.427 C273.219,220.334 272.886,220.263 272.545,220.19 C272.127,220.1 271.712,220.018 271.295,219.953 C270.943,219.899 270.593,219.852 270.243,219.811 C269.868,219.772 269.49,219.744 269.121,219.722 C268.753,219.699 268.389,219.677 268.037,219.677 C267.701,219.671 267.376,219.677 267.052,219.688 C266.674,219.699 266.299,219.71 265.935,219.735 C265.667,219.755 265.416,219.786 265.154,219.817 C264.75,219.86 264.338,219.896 263.946,219.958 L263.94,219.958 C263.683,219.968 263.447,219.953 263.173,219.97 C260.839,220.131 257.455,221.432 253.815,223.35 C253.809,222.656 253.764,220.585 253.552,217.516 C253.767,217.589 253.981,217.653 254.187,217.733 L253.603,212.482 L253.126,212.482 C252.401,205.356 250.917,195.581 247.86,185.391 C245.406,176.189 243.126,172.471 241.934,171.039 C241.76,170.719 241.583,170.36 241.408,170.057 L241.316,170.392 C241.162,170.258 241.067,170.204 241.067,170.204 L240.702,170.715 C240.924,170.169 241.02,169.548 240.978,168.855 C241.24,168.28 241.357,167.869 241.357,167.869 C241.357,167.869 241.291,168.071 240.912,168.383 C240.849,167.989 240.73,167.57 240.566,167.133 C240.511,166.98 240.445,166.824 240.373,166.666 C240.271,166.432 240.153,166.196 240.017,165.95 C239.859,165.666 239.678,165.368 239.48,165.066 C239.382,164.922 239.293,164.784 239.186,164.641 C238.894,164.233 238.56,163.81 238.18,163.37 C238.093,163.273 237.999,163.172 237.913,163.073 C237.471,162.583 236.993,162.081 236.44,161.554 C235.86,161.001 235.317,160.518 234.796,160.073 L234.952,160.064 C234.732,158.896 234.489,157.661 234.232,156.39 C234.178,156.113 234.123,155.834 234.063,155.552 C233.898,154.75 233.731,153.938 233.555,153.107 C231.598,143.771 229.01,132.767 227.19,125.235 C227.538,125.271 227.737,125.286 227.737,125.286 L225.33,117.016 C225.507,117.016 225.674,117 225.85,116.997 C226.715,116.997 227.543,116.95 228.385,116.917 C229.354,116.879 230.329,116.849 231.265,116.776 C232.078,116.709 232.857,116.608 233.645,116.514 C234.548,116.406 235.45,116.305 236.32,116.161 C237.081,116.035 237.809,115.88 238.544,115.727 C239.382,115.553 240.214,115.373 241.02,115.169 C241.725,114.986 242.401,114.78 243.082,114.57 C243.851,114.334 244.615,114.086 245.352,113.818 C245.999,113.578 246.618,113.323 247.238,113.06 C247.948,112.76 248.643,112.451 249.312,112.12 C249.902,111.829 250.471,111.527 251.027,111.211 C251.673,110.855 252.296,110.481 252.901,110.092 C253.428,109.751 253.942,109.407 254.444,109.044 C255.014,108.626 255.573,108.194 256.106,107.75 C256.571,107.366 257.028,106.976 257.468,106.57 C257.976,106.097 258.458,105.606 258.924,105.106 C259.331,104.68 259.734,104.249 260.106,103.805 C260.543,103.277 260.956,102.73 261.353,102.179 C261.695,101.712 262.036,101.25 262.349,100.764 C262.721,100.183 263.051,99.582 263.387,98.977 C263.661,98.476 263.946,97.982 264.191,97.466 C264.499,96.833 264.755,96.171 265.012,95.509 C265.221,94.983 265.45,94.464 265.633,93.922 C265.865,93.227 266.042,92.501 266.237,91.782 C266.377,91.239 266.544,90.706 266.66,90.154 C266.821,89.38 266.925,88.574 267.038,87.773 C267.114,87.24 267.218,86.715 267.269,86.168 C267.357,85.27 267.382,84.337 267.405,83.407 C267.421,82.931 267.467,82.472 267.461,81.988 C267.456,80.562 267.382,79.109 267.227,77.626 C264.75,53.291 259.285,33.43 217.569,17.038 C175.854,0.652 157.477,31.44 157.477,31.44 C157.477,31.44 143.075,12.073 102.851,31.938 C68.08,49.109 72.557,68.19 72.557,68.19 C72.557,68.19 47.729,65.213 31.34,80.608 C14.949,96.001 2.038,120.336 21.407,153.608 C40.771,186.88 55.673,171.485 61.135,175.954 C61.288,176.081 61.448,176.253 61.621,176.469 C61.674,176.532 61.731,176.629 61.784,176.699 C61.905,176.868 62.03,177.033 62.158,177.242 C62.224,177.342 62.295,177.477 62.361,177.587 C62.488,177.806 62.615,178.015 62.749,178.264 C62.815,178.391 62.887,178.543 62.958,178.679 C63.097,178.949 63.237,179.218 63.382,179.52 C63.452,179.669 63.529,179.834 63.6,179.991 C63.751,180.312 63.901,180.636 64.057,180.991 C64.13,181.152 64.201,181.327 64.274,181.493 C64.439,181.874 64.601,182.258 64.775,182.673 C64.838,182.831 64.907,183.001 64.972,183.164 C65.154,183.606 65.337,184.059 65.524,184.529 C65.585,184.693 65.649,184.858 65.711,185.02 C65.907,185.528 66.106,186.042 66.31,186.58 C66.357,186.717 66.413,186.856 66.46,186.995 C66.682,187.578 66.902,188.171 67.122,188.785 C67.162,188.895 67.201,189.012 67.243,189.119 C67.48,189.779 67.719,190.452 67.964,191.143 C67.987,191.214 68.011,191.283 68.035,191.351 C68.298,192.1 68.561,192.86 68.828,193.639 C68.831,193.657 68.839,193.673 68.843,193.691 C70.264,197.848 71.74,202.421 73.189,207.065 C73.103,207.179 73.051,207.243 73.051,207.243 L73.219,207.161 C77.047,219.445 80.685,232.191 82.592,238.997 C82.625,239.106 82.652,239.205 82.68,239.312 C82.794,239.716 82.898,240.097 83.002,240.458 C83.092,240.791 83.187,241.124 83.267,241.412 L80.991,235.357 L81,234.556 C81,234.556 80.831,234.387 80.518,234.094 L80.288,233.478 C80.288,233.478 79.155,232.688 77.543,231.667 C72.851,228.253 63.887,223.474 53.884,227.153 C50.166,228.242 46.348,230.335 43.114,234.178 C41.689,234.883 39.661,236.833 39.29,242.225 C39.251,242.732 39.3,243.234 39.372,243.742 C39.664,248.753 43.77,252.815 47.434,255.468 C48.095,255.964 48.75,256.437 49.359,256.844 C41.962,253.425 28.201,250.762 24.417,266.138 C23.625,269.353 24.13,271.933 25.467,274.018 C26.442,276.153 28.298,278.119 31.707,279.259 C32.359,279.477 33.079,279.64 33.777,279.829 C40.182,282.202 48.401,282.746 53.718,282.816 C50.575,283.192 46.587,284.233 43.168,286.859 C37.603,290.542 33.814,296.788 35.789,306.668 C35.797,306.707 35.815,306.747 35.824,306.783 C36.034,309.724 36.907,312.542 38.997,314.542 C41.244,316.692 44.662,318.47 48.943,319.807 C51.51,320.65 54.344,321.282 57.384,321.694 C64.311,322.724 72.505,322.891 81.368,321.965 C81.651,322.326 81.946,322.685 82.276,323.034 C83.011,323.805 83.732,324.598 84.436,325.401 C84.699,325.7 84.951,326.011 85.209,326.31 C85.642,326.829 86.084,327.334 86.504,327.852 C86.789,328.206 87.057,328.556 87.335,328.905 C87.712,329.385 88.097,329.864 88.461,330.339 C88.74,330.705 89.004,331.072 89.276,331.435 C89.622,331.904 89.974,332.373 90.307,332.833 C90.556,333.183 90.793,333.526 91.037,333.876 C91.371,334.351 91.708,334.827 92.025,335.293 C92.249,335.614 92.454,335.934 92.67,336.255 C92.989,336.728 93.308,337.2 93.604,337.662 C93.804,337.968 93.986,338.261 94.174,338.554 C94.47,339.017 94.771,339.479 95.044,339.925 C95.213,340.19 95.367,340.444 95.529,340.71 C95.743,341.062 95.959,341.412 96.163,341.754 C95.841,342.095 92.684,345.596 88.799,351.809 C88.69,351.983 88.582,352.142 88.469,352.316 C88.411,352.421 88.351,352.528 88.29,352.624 C87.062,354.607 85.775,356.876 84.477,359.448 C83.99,360.408 83.508,361.432 83.023,362.459 C82.948,362.625 82.871,362.777 82.794,362.947 C78.893,371.343 75.287,382.041 73.739,394.743 C73.646,395.389 73.525,395.99 73.439,396.644 C70.506,418.885 76.023,434.232 89.434,443.179 C101.367,451.97 117.118,453.973 127.389,452.593 C127.819,452.607 128.217,452.636 128.653,452.642 C128.653,452.642 128.769,452.642 128.94,452.646 C130.56,452.872 132.24,453.039 133.957,453.138 C136.317,453.363 138.73,453.369 141.275,453.103 C142.582,453.024 143.88,452.9 145.181,452.731 C164.638,452.686 197.843,452.077 225.73,448.979 C268.122,444.268 302.406,424.908 302.406,424.908 C302.406,424.908 298.042,392.847 295.164,381.297 C295.652,381.449 296.975,381.609 299.931,381.7 C303.737,382.239 309.839,382.843 315.931,382.425 C322.061,382.174 327.874,381.051 330.661,378.063 C330.756,377.962 330.858,377.812 330.957,377.68 C332.356,376.534 333.499,375.141 334.266,373.436 C336.199,370.279 336.148,367.393 336.128,367.026 C338.792,355.68 341.554,336.604 343.416,322.422 C344.801,312.765 345.696,305.455 345.82,304.405 C347.975,304.899 349.639,305.184 350.959,305.125 C352.749,305.113 354.402,304.631 354.738,302.967 C354.822,302.54 354.808,302.018 354.738,301.454 C354.96,300.571 355.017,299.496 354.789,298.114 C354.072,293.8 352.362,291.907 351.149,290.254 C351.086,290.127 351.031,290 350.98,289.876 C350.613,288.668 350.35,287.543 350.311,286.598 C350.322,286.315 350.339,286.027 350.373,285.742 C350.502,285.192 350.711,284.637 350.965,284.084 C351.434,283.212 352.1,282.129 352.875,280.887 C353.217,280.393 353.558,279.893 353.906,279.386 C355.9,277.039 358.022,274.522 358.34,270.871 C358.654,269.966 358.908,269.016 359.057,267.966 C359.393,266.493 359.565,265.031 359.444,263.603 C359.42,261.635 359.08,259.445 358.29,256.9 C356.078,249.83 352.043,246.535 348.172,244.995 C348.249,244.927 348.316,244.865 348.39,244.786 C348.598,244.583 348.83,244.352 349.083,244.103 C349.255,243.939 349.445,243.753 349.639,243.567 C349.908,243.31 350.204,243.025 350.511,242.732 C350.698,242.549 350.886,242.371 351.086,242.174 C351.518,241.762 351.993,241.31 352.481,240.851 C352.709,240.636 352.949,240.407 353.189,240.182 C353.71,239.69 354.266,239.175 354.839,238.63 C355.084,238.404 355.344,238.17 355.592,237.935 C356.078,237.49 356.577,237.033 357.09,236.564 C357.381,236.3 357.667,236.034 357.968,235.764 C358.588,235.199 359.232,234.618 359.889,234.031 C360.197,233.761 360.504,233.484 360.823,233.202 C361.548,232.556 362.292,231.904 363.052,231.238 C363.348,230.984 363.656,230.725 363.952,230.465 C364.66,229.855 365.371,229.246 366.099,228.629 C366.384,228.389 366.668,228.146 366.959,227.903 C367.467,227.475 367.984,227.052 368.497,226.625 C374.591,224.286 380.764,221.468 386.962,218.068 C447.603,184.821 435.268,110.204 369.431,115.814 z" fill-opacity="0" stroke="#303053" stroke-width="23.389"/>
    </g>
    <path d="M96.205,342.219 C96.205,342.219 78.413,358.969 73.439,396.644 C68.469,434.325 87.569,452.379 128.653,452.642 C128.653,452.642 183.339,453.69 225.73,448.979 C268.122,444.268 302.406,424.908 302.406,424.908 C302.406,424.908 297.954,392.198 295.079,380.946 C295.079,380.946 323.336,385.912 330.661,378.063 C337.988,370.215 345.833,304.275 345.833,304.275 C345.833,304.275 353.948,306.893 354.738,302.967 C355.519,299.045 348.976,288.572 350.545,284.91 C352.117,281.245 360.225,271.565 359.444,263.457 C358.659,255.343 350.807,247.232 347.93,245.663 C345.052,244.095 290.931,240.48 290.931,240.48 C290.931,240.48 289.808,262.362 266.288,280.988 C239.856,301.917 217.092,313.958 200.082,315.002 C183.075,316.052 96.205,342.219 96.205,342.219" fill="#FFFFFE"/>
    <path d="M93.134,373.535 C93.134,373.535 85.748,375.874 84.581,378.591 C83.415,381.313 83.028,385.195 81.47,387.143 C79.916,389.089 79.138,390.251 79.138,390.251 C79.138,390.251 79.916,416.3 91.19,426.025 C102.466,435.741 104.272,445.283 116.462,448.962 C128.653,452.642 136.29,455.183 148.732,451.682 C161.172,448.184 162.337,434.963 162.337,434.963 L165.449,428.355 C165.449,428.355 129.68,434.576 115.685,422.916 C101.688,411.253 93.912,409.301 93.134,373.535" fill="#C7E7F1"/>
    <path d="M273.882,292.243 L273.882,292.243 L345.833,304.275 C345.833,304.275 356.345,307.446 354.789,298.114 C353.234,288.784 347.013,290.727 351.285,282.177 C355.57,273.625 362.171,269.343 358.29,256.9 C354.396,244.465 344.877,243.685 340.499,243.685 C336.128,243.685 291.8,241.742 291.8,241.742 C291.8,241.742 292.582,251.072 285.98,261.956 C279.364,272.847 265.768,282.301 265.768,282.301 C265.768,282.301 275.403,284.82 273.882,292.243" fill="#C7E7F1"/>
    <path d="M154.995,349.275 C154.995,349.275 147.049,350.27 131.158,345.303 C115.264,340.337 111.292,326.931 111.789,321.959 C112.287,317 120.728,317 120.728,317 C120.728,317 119.24,314.517 117.253,309.052 C115.57,304.428 125.994,298.379 129.226,296.63 L265.244,282.729 C265.244,282.729 268.226,281.242 271.699,286.205 C275.174,291.168 272.698,295.145 272.698,295.145 C272.698,295.145 276.173,296.139 277.164,302.594 C277.237,303.094 277.296,303.587 277.319,304.072 C277.319,304.072 237.509,322.337 209.771,331.235 C182.036,340.128 154.995,349.275 154.995,349.275" fill="#D8232A"/>
    <path d="M215.583,312.028 C215.583,312.028 200.187,318.483 205.65,331.891 C211.11,345.303 222.038,343.812 232.466,336.362 C242.896,328.917 244.18,304.366 215.583,312.028" fill="#D8232A"/>
    <path d="M237.929,329.413 C237.929,329.413 240.411,343.812 270.214,337.357 C300.013,330.9 307.955,300.111 307.955,300.111 C307.955,300.111 306.964,301.601 296.532,306.07 C286.104,310.539 270.708,299.118 257.296,297.626 C243.889,296.139 233.458,312.028 233.458,312.028 L237.929,329.413" fill="#D8232A"/>
    <path d="M225.33,117.016 C254.486,117.119 269.585,100.731 267.227,77.626 C264.75,53.291 259.285,33.43 217.569,17.038 C175.854,0.652 157.477,31.44 157.477,31.44 C157.477,31.44 143.075,12.073 102.851,31.938 C68.08,49.109 72.557,68.19 72.557,68.19 C72.557,68.19 47.729,65.213 31.34,80.608 C14.949,96.001 2.038,120.336 21.407,153.608 C40.771,186.88 55.673,171.485 61.135,175.954 C66.597,180.423 83.979,243.993 83.979,243.993 C83.979,243.993 87.454,236.046 95.005,226.465 C102.555,216.884 128.672,193.833 128.672,193.833 C128.672,193.833 157.751,174.673 181.086,169.221 C197.598,165.361 221.439,160.997 225.444,160.612 L234.952,160.064 C232.29,145.872 226.458,122.169 225.245,117.267 C225.096,116.682 223.775,117.014 225.33,117.016" fill="#FFFFFE"/>
    <path d="M128.807,195.279 C128.807,195.279 127.347,223.854 131.722,238.142 C136.098,252.432 140.178,258.554 139.884,260.887 C139.748,261.999 138.416,263.352 137.201,263.66 C135.861,263.999 134.068,263.66 134.068,263.66 C134.068,263.66 140.759,269.343 139.594,273.425 C138.428,277.507 134.637,276.926 131.722,275.465 C128.807,274.009 122.391,271.385 116.27,261.471 C110.145,251.557 110.795,246.976 110.795,246.976 C110.795,246.976 102.855,247.475 95.857,255.059 C88.857,262.639 93.523,276.342 102.271,283.632 C111.017,290.923 119.159,292.936 129.666,290.181 L129.099,296.754 C129.099,296.754 120.055,304.625 116.558,306.668 C113.06,308.708 97.898,320.08 81.276,320.955 C64.656,321.832 39.29,324.163 35.789,306.668 C32.289,289.17 46.87,283.054 57.366,282.467 C57.366,282.467 19.876,284.595 24.417,266.138 C29.083,247.184 48.911,255.64 53.284,259.141 C53.284,259.141 32.58,249.224 41.621,236.102 C50.661,222.983 65.875,226.177 69.114,227.209 C73.098,228.484 80.288,233.478 80.288,233.478 L83.9,243.099 C83.9,243.099 90.025,229.979 100.521,219.485 C111.017,208.983 127.932,192.656 128.807,195.279" fill="#EB8B2D"/>
    <path d="M116.85,291.797 C116.85,291.797 112.185,304.338 83.028,306.377 C53.869,308.417 37.248,305.5 38.124,293.253 C38.124,293.253 32.289,308.13 38.997,314.542 C45.703,320.955 62.615,324.163 82.735,321.832 C102.855,319.493 116.558,306.668 116.558,306.668 L129.099,296.754 L129.666,290.181 C129.666,290.181 123.559,292.675 116.85,291.797" fill="#89492F"/>
    <path d="M241.067,170.204 C241.067,170.204 244.275,171.952 247.86,185.391 C253.21,205.429 253.82,223.632 253.82,223.632 C253.82,223.632 267.227,214.694 280.639,223.632 C294.046,232.57 296.035,253.927 275.679,273.292 C255.31,292.663 217.569,320.476 169.892,317.49 C122.102,314.506 129.666,290.181 129.666,290.181 C129.666,290.181 112.783,298.125 97.884,278.754 C82.985,259.389 100.367,247.969 110.795,246.976 C110.795,246.976 113.201,257.335 119.021,265.706 C124.844,274.076 130.3,276.255 135.033,276.255 C139.762,276.255 140.852,273.346 140.125,270.798 C139.395,268.253 134.637,263.221 134.637,263.221 C134.637,263.221 139.594,264.682 139.884,260.887 C140.178,257.098 133.387,248.414 131.429,235.809 C126.767,205.776 129.099,193.532 129.099,193.532 C129.099,193.532 146.593,189.739 157.674,187.991 C168.751,186.242 176.919,180.994 179.539,176.328 C182.167,171.663 181.58,168.746 181.58,168.746 C181.58,168.746 207.826,160.872 225.907,160.583 C225.907,160.583 222.698,165.538 229.112,171.079 C235.526,176.618 239.61,172.244 239.61,172.244 L241.067,170.204" fill="#FADDB9"/>
    <path d="M208.132,316.497 C208.132,316.497 184.792,310.045 172.375,320.966 C159.959,331.891 163.936,353.747 142.582,351.267 C142.582,351.267 161.187,367.444 189.259,361.189 C217.333,354.945 217.333,341.68 217.333,341.68 L208.132,316.497" fill="#D8232A"/>
    <path d="M168.751,262.639 C168.751,262.639 150.676,264.095 146.3,270.804 C141.924,277.507 141.052,287.424 152.718,286.84 C164.381,286.259 202.579,257.97 168.751,262.639" fill="#F2B286"/>
    <path d="M247.58,244.465 C247.58,244.465 265.633,242.67 269.882,235.885 C274.127,229.1 274.822,219.175 263.173,219.97 C251.518,220.766 213.848,249.751 247.58,244.465" fill="#F2B286"/>
    <path d="M124.644,333.386 C129.159,330.017 135.5,327.348 144.35,327.007 C170.176,326.011 167.196,338.43 166.201,344.888 C166.201,344.888 176.133,346.375 177.622,356.802 C179.116,367.235 174.646,370.209 174.646,370.209 C174.646,370.209 183.085,369.715 185.074,386.106 C186.469,397.612 178.123,399.514 178.123,399.514 C178.123,399.514 190.535,408.945 181.597,418.385 C172.658,427.819 148.224,436.554 122.001,425.833 C95.781,415.115 90.713,383.621 93.696,372.697 C96.679,361.773 100.153,355.809 100.153,348.857 C100.153,348.857 92.703,333.961 82.276,323.034 C71.843,312.107 79.791,293.238 94.689,296.218 C109.585,299.191 118.214,311.814 122.684,334.661 L124.644,333.386" fill="#FADDB9"/>
    <path d="M105.476,248.35 C105.476,248.35 106.354,265.557 119.183,273.425 C132.014,281.299 136.387,276.633 136.387,276.633 C136.387,276.633 125.599,277.22 116.27,261.471 C106.938,245.728 110.795,246.976 110.795,246.976 L105.476,248.35" fill="#F8CD9A"/>
    <path d="M279.265,243.977 C279.265,243.977 271.685,255.349 259.728,260.887 C247.777,266.431 239.316,266.725 236.692,266.431 C234.069,266.138 229.403,262.639 229.403,262.639 C229.403,262.639 217.448,278.969 204.038,284.798 C190.622,290.632 179.836,294.418 160.004,281.299 C160.004,281.299 168.464,294.13 186.25,292.675 C199.643,291.574 204.106,289.813 205.493,289.016 C206.479,288.719 218.032,282.177 223.571,276.342 C229.112,270.508 229.112,268.177 229.112,268.177 C229.112,268.177 232.902,270.804 244.275,269.642 C255.649,268.474 268.477,262.349 274.021,255.93 C279.562,249.515 279.265,243.977 279.265,243.977" fill="#F8CD9A"/>
    <path d="M209.285,237.558 C209.285,237.558 213.324,242.737 225.907,239.312 C235.526,236.688 239.316,230.854 239.316,230.854 C239.316,230.854 235.819,243.977 226.194,245.432 C216.575,246.893 209.285,237.558 209.285,237.558" fill="#F8CD9A"/>
    <path d="M129.099,193.532 C128.577,194.574 128.223,199.362 128.223,199.362 C128.223,199.362 126.473,198.781 137.842,195.864 C149.216,192.948 158.545,188.284 158.545,188.284 C158.545,188.284 129.68,192.362 129.099,193.532" fill="#F8CD9A"/>
    <path d="M181.291,174.287 C181.291,174.287 186.25,171.371 203.16,167.287 C220.074,163.207 225.028,163.79 225.028,163.79 L225.907,160.583 C225.907,160.583 199.952,163.207 181.875,169.62 L181.291,174.287" fill="#F8CD9A"/>
    <path d="M168.751,188.284 C171.085,186.532 181.58,180.994 182.167,174.287 C182.167,174.287 176.626,183.324 164.67,185.948 L168.751,188.284" fill="#F8CD9A"/>
    <path d="M104.027,261.33 C104.027,261.33 103.856,261.527 103.603,261.877 C102.237,263.745 102.855,271.095 104.027,272.7 C108.442,278.754 112.185,273.425 112.185,273.425 C112.185,273.425 111.312,276.926 114.229,278.675 C117.142,280.425 121.807,282.467 121.807,282.467 C121.807,282.467 105.476,285.384 101.98,273.721" fill="#F8CD9A"/>
    <path d="M115.099,343.404 C115.099,343.404 112.765,325.04 108.395,316.288 C104.027,307.543 108.395,303.751 108.395,303.751 C108.395,303.751 119.477,320.667 120.932,326.784 C122.391,332.909 122.684,334.661 122.684,334.661 L115.099,343.404" fill="#F8CD9A"/>
    <path d="M94.401,388.308 C94.401,388.308 95.857,406.97 116.85,416.597 C137.842,426.217 147.466,427.385 159.421,425.052 C171.378,422.719 184.499,414.848 184.499,414.848 C184.499,414.848 175.751,427.969 155.925,429.716 C136.098,431.468 101.104,428.841 94.401,388.308" fill="#F8CD9A"/>
    <path d="M137.554,356.528 C137.554,356.528 139.303,345.743 150.09,343.7 C160.88,341.66 167.002,336.41 167.002,336.41 L166.201,344.888 C166.201,344.888 151.841,341.951 137.554,356.528" fill="#F8CD9A"/>
    <path d="M145.719,381.894 C145.719,381.894 156.215,369.356 164.381,366.445 C172.546,363.528 178.084,363.528 178.084,363.528 L175.46,369.65 L145.719,381.894" fill="#F8CD9A"/>
    <path d="M159.132,403.184 C159.132,403.184 171.669,397.35 176.919,396.473 C182.167,395.601 185.664,388.603 185.664,388.603 C185.664,388.603 184.499,397.185 179.836,398.811 C175.167,400.428 159.132,403.184 159.132,403.184" fill="#F8CD9A"/>
    <path d="M284.417,225.02 C284.417,225.02 278.196,204.027 271.2,195.474 C264.197,186.921 271.975,167.48 282.863,170.595 C293.75,173.702 304.321,200.407 303.54,206.628 L304.479,202.743 C304.479,202.743 312.139,178.922 317.077,169.039 C324.073,155.042 332.625,146.49 340.403,151.155 C348.181,155.821 333.406,191.586 333.406,191.586 C333.406,191.586 341.051,170.833 349.736,159.707 C355.302,152.577 361.207,152.441 366.065,154.264 C378.507,158.927 348.954,198.583 348.954,198.583 C348.954,198.583 360.874,179.218 368.395,172.148 C376.001,164.998 383.133,163.178 389.391,168.259 C401.831,178.37 365.284,211.806 365.284,211.806 C365.284,211.806 384.725,190.81 390.889,191.353 C405.134,192.605 410.466,202.743 392.878,210.223 C375.288,217.704 347.188,245.982 347.188,245.982 C347.188,245.982 345.167,244.56 340.499,243.685 C335.837,242.811 290.931,240.48 290.931,240.48 C290.931,240.48 288.116,228.811 284.417,225.02" fill="#FADDB9"/>
    <path d="M290.931,240.48 L329.712,243.393 C329.712,243.393 341.667,239.893 349.245,237.852 C356.829,235.809 363.535,229.979 363.535,229.979 C363.535,229.979 343.416,237.27 327.086,237.852 C310.765,238.435 289.76,234.934 289.76,234.934 L290.931,240.48" fill="#F8CD9A"/>
    <path d="M180.567,168.168 C183.318,172.674 178.824,184.341 158.191,187.575 C137.563,190.805 124.328,197.734 124.459,189.727 C124.459,189.727 114.109,186.634 122.629,177.436 C132.916,166.333 170.854,152.237 180.567,168.168" fill="#EB8B2D"/>
    <path d="M225.018,163.043 C223.553,168.908 231.473,173.473 234.454,173.969 C237.433,174.465 246.371,170.991 236.44,161.554 C226.506,152.12 226.014,159.071 225.018,163.043" fill="#EB8B2D"/>
    <path d="M25.29,264.389 C25.29,264.389 21.21,275.764 31.707,279.259 C42.203,282.755 58.531,282.467 58.531,282.467 C58.531,282.467 25,279.838 25.29,264.389" fill="#89492F"/>
    <path d="M44.538,233.771 C44.538,233.771 40.165,237.852 43.373,243.393 C46.579,248.934 53.284,259.141 53.284,259.141 C53.284,259.141 38.703,250.683 39.29,242.225 C39.87,233.771 44.538,233.771 44.538,233.771" fill="#89492F"/>
    <path d="M83.9,243.099 L85.069,248.35 C85.069,248.35 95.273,229.105 106.354,218.313 C117.436,207.528 128.807,194.405 128.807,194.405 C128.807,194.405 106.938,213.65 100.521,219.485 C94.107,225.313 83.9,243.099 83.9,243.099" fill="#89492F"/>
    <path d="M110.145,243.685 C110.145,243.685 114.229,257.098 122.684,264.97 C131.138,272.847 138.719,274.302 138.719,274.302 C138.719,274.302 136.97,278.969 129.099,274.593 C121.226,270.217 114.229,264.095 110.145,243.685" fill="#89492F"/>
    <path d="M121.518,187.113 C121.518,187.113 125.889,189.157 129.099,188.284 C129.099,188.284 127.055,191.781 133.762,190.615 C140.468,189.449 159.132,187.407 159.132,187.407 C159.132,187.407 131.138,194.698 128.807,194.405 C126.473,194.113 124.459,189.727 124.459,189.727 C124.459,189.727 120.64,188.572 121.518,187.113" fill="#89492F"/>
    <path d="M228.53,169.912 C228.53,169.912 231.735,171.371 236.402,170.204 C241.067,169.039 241.357,167.869 241.357,167.869 C241.357,167.869 238.734,177.493 228.53,169.912" fill="#89492F"/>
    <path d="M180.709,175.16 C180.709,175.16 180.124,177.786 164.67,182.743 C149.216,187.7 133.762,190.615 133.762,190.615 C133.762,190.615 157.09,188.284 163.215,186.826 C169.335,185.367 178.374,179.535 180.709,175.16" fill="#89492F"/>
    <path d="M238.922,230.584 C238.922,230.584 245.377,226.611 253.82,229.591 C262.267,232.57 263.257,242.004 269.709,241.511 C276.173,241.017 280.146,240.023 280.146,240.023 C280.146,240.023 278.157,250.448 266.237,257.4 C254.317,264.354 238.922,271.803 228.992,262.371 L229.109,262.419 C227.315,266.436 221.842,274.206 205.153,284.216 C180.323,299.118 159.959,283.723 156.485,277.761 C156.485,277.761 161.945,279.254 168.403,272.796 C174.861,266.341 179.066,251.241 192.243,243.499 C205.417,235.755 212.604,241.017 212.604,241.017 C212.604,241.017 220.657,247.475 226.194,245.432 C231.735,243.393 238.531,239.059 238.922,230.584" fill="#EB8B2D"/>
    <path d="M157.674,278.675 C157.674,278.675 167.296,288.302 184.208,282.177 C201.12,276.052 214.822,271.095 221.823,262.639 C228.821,254.181 230.569,256.805 232.321,258.554 C234.069,260.309 266.147,258.848 271.394,253.597 C271.394,253.597 257.395,263.805 246.898,265.844 C236.402,267.887 229.694,262.349 229.694,262.349 C229.694,262.349 222.698,274.009 208.408,281.593 C194.121,289.17 180.124,299.378 157.674,278.675" fill="#89492F"/>
    <path d="M152.615,95.798 C152.615,95.798 151.686,109.144 175.586,115.973 C199.488,122.801 227.737,125.286 227.737,125.286 L225.33,117.016 C225.33,117.016 186.76,115.041 178.067,113.182 C169.375,111.315 156.961,104.489 152.615,95.798" fill="#CBCCCB"/>
    <path d="M230.528,156.95 C230.528,156.95 227.114,135.839 223.39,128.7 C219.667,121.561 209.42,122.492 209.42,122.492 L226.184,121.561 L234.564,159.432 L230.528,156.95" fill="#CBCCCB"/>
    <path d="M35.588,170.294 C35.588,170.294 44.281,174.333 53.284,171.847 C62.285,169.363 65.387,166.569 67.251,173.399 C69.114,180.231 86.187,237.036 86.187,237.036 L83.9,243.099 C83.9,243.099 70.044,194.509 66.631,186.747 C63.216,178.987 62.592,173.396 55.765,174.641 C48.938,175.883 39.005,175.261 35.588,170.294" fill="#CBCCCB"/>
    <path d="M73.148,198.542 L85.874,191.404 L74.078,205.993 L72.836,197.611" fill="#CBCCCB"/>
    <path d="M133.104,304.018 C133.893,304.755 126.3,305.85 127.347,309.252 C128.392,312.654 135.722,320.768 135.722,320.768 C135.722,320.768 122.897,319.984 122.897,323.384 C122.897,326.784 126.042,331.761 126.042,331.761 L122.684,334.661 L117.665,317.626 L120.728,317 C120.728,317 115.977,308.268 116.558,306.668 C117.142,305.065 129.226,296.63 129.226,296.63 C129.226,296.63 129.702,300.882 133.104,304.018" fill="#9B1D23"/>
    <path d="M167.904,325.999 C167.904,325.999 159.271,319.722 151.68,316.576 C144.095,313.439 136.242,308.208 136.242,308.208 C136.242,308.208 146.713,316.319 176.542,317.891 C176.542,317.891 169.473,322.337 167.904,325.999" fill="#9B1D23"/>
    <path d="M166.073,329.143 C166.073,329.143 172.352,336.728 170.783,341.437 C170.783,341.437 179.156,344.577 180.992,351.383 C182.823,358.182 195.643,356.876 202.181,353.478 C208.725,350.07 214.743,341.703 214.743,341.703 L217.098,342.487 C217.098,342.487 215.72,349.76 207.678,354.782 C195.118,362.631 177.586,362.631 177.586,362.631 C177.586,362.631 179.156,356.091 174.708,350.336 C170.262,344.577 166.201,344.888 166.201,344.888 C166.201,344.888 167.41,338.447 167.002,336.41 C166.599,334.376 164.767,332.279 164.767,332.279 L166.073,329.143" fill="#9B1D23"/>
    <path d="M208.725,336.991 C208.725,336.991 217.622,338.825 225.472,334.633 C233.321,330.448 239.862,321.553 239.862,321.553 C239.862,321.553 238.556,330.971 231.753,336.728 C224.949,342.487 213.697,343.79 208.725,336.991" fill="#9B1D23"/>
    <path d="M239.602,323.646 C239.602,323.646 241.695,332.545 250.065,334.897 C258.442,337.256 281.997,333.326 281.997,333.326 C281.997,333.326 263.153,340.913 252.165,338.825 C241.171,336.728 238.033,330.448 238.033,330.448 L239.602,323.646" fill="#9B1D23"/>
    <path d="M204.277,332.018 C204.277,332.018 200.09,329.927 194.855,330.448 C189.624,330.971 186.486,336.207 187.269,338.298 C188.055,340.393 190.147,343.536 190.147,343.536 C190.147,343.536 181.25,341.703 185.699,335.423 C190.147,329.143 191.718,326.784 196.689,327.311 C201.662,327.833 203.755,329.143 203.755,329.143 L204.277,332.018" fill="#9B1D23"/>
    <path d="M242.48,320.768 C242.48,320.768 250.071,316.058 252.423,315.272 C254.777,314.488 262.369,315.272 257.658,324.696 C257.658,324.696 264.197,313.964 257.132,313.964 C250.065,313.964 246.403,314.751 240.125,320.241 C240.125,320.241 240.388,321.812 242.48,320.768" fill="#9B1D23"/>
    <path d="M271.699,286.205 C271.699,286.205 269.956,283.612 264.197,286.756 C258.442,289.89 242.48,300.359 237.771,304.281 C233.06,308.208 227.305,310.561 227.305,310.561 L216.051,310.561 L208.132,316.497 L202.181,314.488 C202.181,314.488 219.189,311.87 244.047,297.738 C268.909,283.612 265.768,282.301 265.768,282.301 C265.768,282.301 270.042,282.783 271.699,286.205" fill="#9B1D23"/>
    <path d="M273.882,292.243 C273.882,292.243 272.048,297.481 267.342,297.738 C267.342,297.738 272.054,296.692 276.241,299.051 C276.241,299.051 275.71,297.738 273.62,296.17 L273.882,292.243" fill="#9B1D23"/>
    <path d="M96.205,342.219 C96.205,342.219 99.356,347.102 95.077,356.43 C90.801,365.763 88.469,374.316 88.469,374.316 L93.696,372.697 C93.696,372.697 105.496,346.668 96.205,342.219" fill="#CBCCCB"/>
    <path d="M77.973,429.907 C77.973,429.907 88.465,438.771 96.245,440.411 C104.027,442.044 107.132,441.576 107.132,441.576 C107.132,441.576 116.462,449.352 125.405,452.071 C125.405,452.071 95.469,455.183 77.973,429.907" fill="#CBCCCB"/>
    <path d="M286.753,331.549 C286.753,331.549 290.251,351.768 296.862,358.763 C303.469,365.763 319.413,382.481 336.128,366.928 C336.128,366.928 337.291,381.313 314.354,381.7 C291.414,382.092 295.079,380.946 295.079,380.946 C295.079,380.946 290.553,347.492 279.364,335.826 L286.753,331.549" fill="#CBCCCB"/>
    <path d="M283.085,292.73 C282.702,290.959 281.861,285.892 282.476,277.896 C283.25,267.791 285.98,261.956 285.98,261.956 C279.364,272.451 266.288,280.988 266.288,280.988 C266.288,280.988 268.477,281.012 271.194,284.51 C273.349,287.264 274.52,290.496 274.926,291.749 C277.643,292.336 280.363,293.346 283.085,292.73" fill="#82B0C1"/>
    <path d="M283.25,293.453 C283.25,293.453 283.181,293.199 283.085,292.73 C280.363,293.346 277.643,292.336 274.926,291.749 C275.034,292.082 275.084,292.279 275.084,292.279 L272.698,295.145 L275.866,298.114 C286.748,295.392 345.069,305.887 345.069,305.887 L345.833,304.275 C344.271,303.44 283.25,293.453 283.25,293.453" fill="#CBCCCB"/>
    <path d="M112.573,445.458 C112.573,445.458 138.622,454.401 149.509,446.236 C160.394,438.072 160.394,429.134 160.394,429.134 L169.725,427.969 C169.725,427.969 167.005,436.131 163.894,439.629 C163.894,439.629 161.56,450.13 147.173,452.461 C132.79,454.791 116.85,451.682 112.573,445.458" fill="#82B0C1"/>
    <path d="M358.29,268.177 C358.118,267.023 348.181,280.616 342.346,286.064 C336.518,291.507 352.066,293.453 352.066,293.453 C352.066,293.453 348.954,288.397 350.898,283.731 C352.847,279.064 359.449,275.955 358.29,268.177" fill="#82B0C1"/>
    <path d="M199.195,363.179 C191.251,363.709 191.745,375.099 198.697,375.099 C205.65,375.099 206.644,362.685 199.195,363.179" fill="#FFDA1A"/>
    <path d="M199.195,363.179 C191.251,363.709 191.745,375.099 198.697,375.099 C205.65,375.099 206.644,362.685 199.195,363.179 z" fill-opacity="0" stroke="#303053" stroke-width="2.339" stroke-linecap="round" stroke-linejoin="round"/>
    <path d="M213.596,426.744 C205.652,427.277 206.147,438.664 213.099,438.664 C220.051,438.664 221.043,426.251 213.596,426.744" fill="#FFDA1A"/>
    <path d="M213.596,426.744 C205.652,427.277 206.147,438.664 213.099,438.664 C220.051,438.664 221.043,426.251 213.596,426.744 z" fill-opacity="0" stroke="#303053" stroke-width="2.339" stroke-linecap="round" stroke-linejoin="round"/>
    <path d="M270.708,416.32 C262.761,416.845 263.257,428.237 270.214,428.237 C277.164,428.237 278.157,415.817 270.708,416.32" fill="#FFDA1A"/>
    <path d="M270.708,416.32 C262.761,416.845 263.257,428.237 270.214,428.237 C277.164,428.237 278.157,415.817 270.708,416.32 z" fill-opacity="0" stroke="#303053" stroke-width="2.339" stroke-linecap="round" stroke-linejoin="round"/>
    <path d="M256.306,346.296 C248.358,346.82 248.858,358.213 255.809,358.213 C262.761,358.213 263.751,345.799 256.306,346.296" fill="#FFDA1A"/>
    <path d="M256.306,346.296 C248.358,346.82 248.858,358.213 255.809,358.213 C262.761,358.213 263.751,345.799 256.306,346.296 z" fill-opacity="0" stroke="#303053" stroke-width="2.339" stroke-linecap="round" stroke-linejoin="round"/>
    <path d="M291.414,422.135 C291.414,422.135 290.641,393.366 275.084,363.037 C275.084,363.037 280.14,377.426 284.031,396.473 C287.921,415.527 287.14,422.135 287.14,422.135 L291.414,422.135" fill="#CBCCCB"/>
    <path d="M177.89,364.983 C177.89,364.983 194.994,365.376 203.549,360.32 C212.101,355.268 218.711,347.489 220.657,345.935 C222.602,344.377 233.486,335.439 240.095,338.549 C246.703,341.66 266.533,344.377 270.032,341.66 C273.536,338.937 278.196,335.826 278.196,335.826 C278.196,335.826 251.369,341.66 246.317,338.156 C241.261,334.661 238.033,330.448 238.033,330.448 C238.033,330.448 235.1,336.164 226.097,339.321 C217.098,342.487 217.098,342.487 217.098,342.487 C217.098,342.487 217.544,353.32 196.94,359.155 C184.833,362.574 177.586,362.631 177.586,362.631 L177.89,364.983" fill="#CBCCCB"/>
    <path d="M178.08,317.705 C175.387,317.733 172.658,317.668 169.892,317.49 C122.102,314.506 129.666,290.181 129.666,290.181 C129.666,290.181 112.783,298.125 97.884,278.754 C82.985,259.389 100.367,247.969 110.795,246.976 M241.408,170.057 C243.629,173.915 245.929,178.947 247.86,185.391 C253.82,205.254 253.82,223.632 253.82,223.632 C253.82,223.632 267.227,214.694 280.639,223.632 C294.046,232.57 296.035,253.927 275.679,273.292 C260.03,288.172 234.132,308.03 201.356,315.093 M128.672,193.833 C128.672,193.833 127.186,231.08 134.637,246.976 C142.082,262.865 140.096,262.865 137.117,263.857 C134.136,264.851 132.151,261.872 132.151,261.872 C132.151,261.872 144.566,271.803 138.111,275.777 C131.656,279.747 114.274,269.32 110.302,243.499 M180.567,168.168 C183.318,172.674 178.824,184.341 158.191,187.575 C137.563,190.805 124.328,197.734 124.459,189.727 C124.459,189.727 114.109,186.634 122.629,177.436 C132.916,166.333 170.854,152.237 180.567,168.168 z M225.018,163.043 C223.553,168.908 231.473,173.473 234.454,173.969 C237.433,174.465 246.371,170.991 236.44,161.554 C226.506,152.12 226.014,159.071 225.018,163.043 z" fill-opacity="0" stroke="#303053" stroke-width="2.339" stroke-linecap="round" stroke-linejoin="round"/>
    <path d="M159.954,256.351 C159.954,256.351 143.257,253.354 142.399,232.804 C141.544,212.254 147.109,198.979 159.099,195.555 C171.086,192.129 179.224,210.112 179.224,222.098 C179.224,234.088 175.796,246.072 175.796,246.072 C175.796,246.072 167.66,249.5 159.954,256.351" fill="#FFFFFE"/>
    <path d="M157.973,256.407 C157.973,256.407 166.416,257.4 167.41,242.004 C168.403,226.611 167.701,218.694 160.952,210.722 C154.207,202.743 145.063,206.25 143.075,215.188 C143.075,215.188 140.759,227.937 143.095,238.142 C145.428,248.35 155.36,255.428 157.973,256.407" fill="#303053"/>
    <path d="M212.604,225.122 C212.604,225.122 213.596,214.194 226.506,212.206 C239.42,210.223 242.4,225.122 237.929,235.056 C233.46,244.986 221.043,250.448 208.629,238.032 M239.827,230.115 C241.883,229.162 247.25,227.271 253.82,229.591 C262.267,232.57 263.257,242.004 269.709,241.511 C276.173,241.017 280.146,240.023 280.146,240.023 C280.146,240.023 278.157,250.448 266.237,257.4 C254.317,264.354 238.922,271.803 228.992,262.371 M229.985,259.389 C229.985,259.389 229.985,269.32 205.153,284.216 C180.323,299.118 159.959,283.723 156.485,277.761 C156.485,277.761 161.945,279.254 168.403,272.796 C174.861,266.341 179.066,251.241 192.243,243.499 C200.455,238.67 206.339,238.895 209.608,239.753 M240.404,273.31 C236.431,279.27 228.985,282.746 219.051,282.746 C212.587,282.746 211.169,280.222 210.968,278.461" fill-opacity="0" stroke="#303053" stroke-width="2.339" stroke-linecap="round" stroke-linejoin="round"/>
    <path d="M254.187,217.733 C246.243,214.753 236.904,215.069 236.904,215.069 C239.884,208.611 248.329,197.191 248.329,197.191 L251.27,201.694 L241.067,212.482 L253.603,212.482 L254.187,217.733" fill="#303053"/>
    <g>
      <path d="M254.187,217.733 C246.243,214.753 236.904,215.069 236.904,215.069 C239.884,208.611 248.329,197.191 248.329,197.191 L251.27,201.694 L241.067,212.482 L253.603,212.482 L254.187,217.733 z M113.358,256.252 C111.154,254.875 105.503,252.626 102.353,262.865 C98.38,275.777 107.816,285.712 126.688,281.736 M115.764,270.81 C115.764,270.81 105.832,272.796 110.302,281.242 M225.444,160.612 C221.439,160.997 197.05,163.5 181.086,169.221 M128.672,193.833 C128.672,193.833 102.555,216.884 95.005,226.465 C87.454,236.046 83.979,243.993 83.979,243.993 C83.979,243.993 66.597,180.423 61.135,175.954 C55.673,171.485 40.771,186.88 21.407,153.608 C2.038,120.336 14.949,96.001 31.34,80.608 C47.729,65.213 72.557,68.19 72.557,68.19 C72.557,68.19 68.08,49.109 102.851,31.938 C143.075,12.073 157.477,31.44 157.477,31.44 C157.477,31.44 175.854,0.652 217.569,17.038 C259.285,33.43 264.75,53.291 267.227,77.626 C269.709,101.96 252.83,118.847 220.549,116.86 C188.269,114.874 163.438,115.37 152.514,96.499 M225.133,117.26 C225.133,117.26 231.968,144.175 234.952,160.064 M73.051,207.243 C73.051,207.243 112.568,154.4 154,139.208 C198.697,122.82 227.887,130.25 227.887,130.25 M113.479,309.368 C115.479,307.816 117.149,306.151 118.403,304.383 M81,234.556 C81,234.556 63.619,216.681 45.741,232.076 C27.862,247.466 53.189,258.893 53.189,258.893 C53.189,258.893 30.842,245.485 24.882,265.345 C18.923,285.212 59.149,282.729 59.149,282.729 C59.149,282.729 35.312,279.747 35.81,305.579 C36.094,320.359 58.456,324.405 80.196,321.395 M215.583,312.028 C215.583,312.028 200.187,318.483 205.65,331.891 C211.11,345.303 222.038,343.812 232.466,336.362 C242.896,328.917 244.18,304.366 215.583,312.028 z M233.458,312.028 C233.458,312.028 243.889,296.139 257.296,297.626 C270.708,299.118 286.104,310.539 296.532,306.07 C306.964,301.601 307.955,300.111 307.955,300.111 C307.955,300.111 300.013,330.9 270.214,337.357 C240.411,343.812 237.929,329.413 237.929,329.413 M257.296,325.435 C260.425,318.771 264.767,312.355 251.834,314.517 C242.896,316.004 239.417,321.466 239.417,321.466 C239.417,321.466 247.16,321.751 250.344,323.455 M177.856,362.608 C181.446,362.518 185.259,362.084 189.259,361.189 C217.333,354.945 217.098,342.225 217.098,342.225 M208.132,316.497 C208.132,316.497 184.792,310.045 172.375,320.966 C168.818,324.103 166.603,328.132 164.757,332.231 M204.655,329.413 C204.655,329.413 194.724,323.948 187.275,332.393 C179.825,340.834 190.254,343.812 190.254,343.812 M205.65,331.891 C205.65,331.891 198.199,333.882 195.219,344.806 M129.226,296.63 C125.994,298.379 115.57,304.428 117.253,309.052 C119.24,314.517 120.728,317 120.728,317 C120.728,317 119.203,317 117.407,317.378 M265.244,282.729 C265.244,282.729 268.226,281.242 271.699,286.205 C275.174,291.168 272.698,295.145 272.698,295.145 C272.698,295.145 276.173,296.139 277.164,302.594 C277.237,303.094 277.296,303.587 277.319,304.072 M279.153,335.369 C279.153,335.369 295.042,356.724 301.5,424.262 M265.244,340.337 C265.244,340.337 286.059,380.921 287.049,421.641 M199.195,363.179 C191.251,363.709 191.745,375.099 198.697,375.099 C205.65,375.099 206.644,362.685 199.195,363.179 z M213.596,426.744 C205.652,427.277 206.147,438.664 213.099,438.664 C220.051,438.664 221.043,426.251 213.596,426.744 z M270.708,416.32 C262.761,416.845 263.257,428.237 270.214,428.237 C277.164,428.237 278.157,415.817 270.708,416.32 z M256.306,346.296 C248.358,346.82 248.858,358.213 255.809,358.213 C262.761,358.213 263.751,345.799 256.306,346.296 z M114.055,348.857 C114.055,348.857 118.526,327.997 144.35,327.007 C170.176,326.011 167.196,338.43 166.201,344.888 C166.201,344.888 176.133,346.375 177.622,356.802 C179.116,367.235 174.646,370.209 174.646,370.209 C174.646,370.209 183.085,369.715 185.074,386.106 C186.469,397.612 178.123,399.514 178.123,399.514 C178.123,399.514 190.535,408.945 181.597,418.385 C172.658,427.819 148.224,436.554 122.001,425.833 C95.781,415.115 90.713,383.621 93.696,372.697 C96.679,361.773 100.153,355.809 100.153,348.857 C100.153,348.857 92.703,333.961 82.276,323.034 C71.843,312.107 79.791,293.238 94.689,296.218 C109.585,299.191 118.165,312.31 122.638,335.157 M166.201,344.888 C166.201,344.888 144.848,343.894 135.413,359.781 M142.861,383.621 C142.861,383.621 155.274,375.674 174.646,370.209 M178.123,399.514 C178.123,399.514 164.213,400.007 155.274,405.966 M296.035,381.057 C296.035,381.057 329.806,388.011 334.774,372.116 C339.737,356.227 345.701,304.084 345.701,304.084 M273.882,292.505 C273.882,292.505 311.431,298.125 327.823,300.607 C344.208,303.091 350.664,307.062 353.643,304.084 C356.625,301.102 352.653,293.656 350.664,289.187 C348.677,284.719 353.643,280.74 356.128,275.777 C358.608,270.81 361.091,266.834 357.119,256.407 C353.149,245.982 344.208,244.487 344.208,244.487 L290.571,240.515" fill-opacity="0" stroke="#303053" stroke-width="2.339" stroke-linecap="round" stroke-linejoin="round"/>
      <path d="M284.417,225.02 C284.417,225.02 278.196,204.027 271.2,195.474 C264.197,186.921 271.975,167.48 282.863,170.595 C293.75,173.702 304.321,200.407 303.54,206.628 C303.54,206.628 315.522,200.915 327.182,216.466 M304.479,202.743 C304.479,202.743 312.139,178.922 317.077,169.039 C324.073,155.042 332.625,146.49 340.403,151.155 C348.181,155.821 333.406,191.586 333.406,191.586 C333.406,191.586 341.051,170.833 349.736,159.707 C355.302,152.577 361.207,152.441 366.065,154.264 C378.507,158.927 348.954,198.583 348.954,198.583 C348.954,198.583 360.874,179.218 368.395,172.148 C376.001,164.998 383.133,163.178 389.391,168.259 C401.831,178.37 365.284,211.806 365.284,211.806 C365.284,211.806 384.725,190.81 390.889,191.353 C405.134,192.605 410.466,202.743 392.878,210.223 C375.288,217.704 347.188,245.982 347.188,245.982 M96.245,341.66 C96.245,341.66 72.917,366.541 72.917,407.749 C72.917,448.962 113.353,455.956 130.457,452.071 M93.696,372.697 C93.696,372.697 85.359,374.316 83.028,382.092 C80.694,389.867 79.138,389.089 79.138,389.089 C79.138,389.089 78.988,416.768 95.005,430.917 C111.017,445.074 117.241,454.401 140.565,452.847 C163.894,451.293 163.894,440.411 163.894,440.411 C163.894,440.411 167.781,437.293 169.335,427.969 M71.855,138.532 C71.855,138.532 88.657,144.773 97.779,178.38 M128.029,151.977 C128.029,151.977 114.105,129.413 109.302,109.248 M162.591,135.655 C162.591,133.735 156.832,119.809 154.431,109.727" fill-opacity="0" stroke="#303053" stroke-width="2.339" stroke-linecap="round" stroke-linejoin="round"/>
      <path d="M265.802,196.181 C268.579,232.011 326.559,251.19 386.962,218.068 C447.603,184.821 435.268,110.204 369.431,115.814 C303.596,121.433 263.187,162.435 265.802,196.181" fill="#852526"/>
    </g>
    <path d="M319.314,135.649 C299.243,144.432 274.212,171.418 273.437,190.856 C272.664,210.293 292.096,234.4 352.749,219.626 C413.403,204.853 432.836,146.535 399.404,131.76 C365.969,116.988 344.197,124.763 319.314,135.649" fill="#F7C05C"/>
    <path d="M374.52,134.093 C389.301,134.87 400.183,137.204 403.292,153.532 C406.404,169.863 403.611,171.928 395.522,186.969 C387.425,202.01 371.409,211.075 347.309,212.629 C323.202,214.184 306.872,221.181 295.99,213.405 C285.106,205.632 278.884,197.855 281.215,184.635 C283.545,171.418 294.427,157.421 306.096,148.867 C317.759,140.315 344.197,132.54 351.973,132.54 C359.746,132.54 374.52,134.093 374.52,134.093" fill="#FFF799"/>
    <path d="M361.353,168.298 C352.955,176.704 371.437,184.622 376.242,178.861 C381.043,173.099 369.033,160.617 361.353,168.298" fill="#C15461"/>
    <path d="M333.606,190.928 C329.191,203.285 351.377,202.461 353.448,194.443 C355.519,186.428 337.646,179.637 333.606,190.928" fill="#C15461"/>
    <path d="M302.663,161.764 C303.562,172.533 319.915,164.346 318.735,157.629 C317.547,150.915 301.841,151.923 302.663,161.764" fill="#C15461"/>
    <path d="M303.813,188.253 C301.486,199.911 321.266,196.226 322.05,188.771 C322.846,181.313 305.929,177.599 303.813,188.253" fill="#C15461"/>
    <path d="M355.274,144.104 C352.955,155.762 372.726,152.079 373.519,144.622 C374.309,137.167 357.392,133.453 355.274,144.104" fill="#C15461"/>
    <path d="M338.905,150.819 C335.97,151.394 333.567,150.132 333.567,150.132 C333.567,150.132 332.333,156.425 328.621,154.334 C324.906,152.248 326.688,148.07 329.439,147.661 C329.439,147.661 325.509,147.319 327.811,144.076 C330.125,140.833 335.065,140.661 335.988,142.214 C336.91,143.766 335.116,145.995 335.116,145.995 C335.116,145.995 338.546,142.125 339.926,143.819 C341.308,145.514 341.838,150.245 338.905,150.819 z M341.793,142.853 C339.952,140.775 336.836,143.991 336.836,143.991 C336.836,143.991 337.821,142.794 336.585,140.892 C335.347,138.991 328.824,139.213 325.817,143.206 C322.815,147.196 328.006,147.6 328.006,147.6 C324.38,148.112 322.07,153.244 326.996,155.798 C331.924,158.353 333.928,152.256 333.928,152.256 C333.928,152.256 336.67,152.162 340.527,151.448 C344.392,150.733 343.638,144.925 341.793,142.853" fill="#15A748"/>
    <path d="M298.382,184.821 C295.869,185.491 293.479,184.388 293.479,184.388 C293.479,184.388 293.567,190.434 289.839,188.597 C286.126,186.761 286.931,182.708 289.318,182.203 C289.318,182.203 285.735,182.039 287.182,178.852 C288.629,175.667 293.022,175.302 294.136,176.741 C295.265,178.184 294.08,180.38 294.08,180.38 C294.08,180.38 296.411,176.553 297.967,178.109 C299.522,179.669 300.899,184.154 298.382,184.821 z M299.46,177.109 C297.417,175.207 295.237,178.4 295.237,178.4 C295.237,178.4 295.891,177.221 294.421,175.457 C292.958,173.697 287.167,174.179 285.227,178.105 C283.302,182.029 288.023,182.203 288.023,182.203 C284.866,182.842 283.78,187.829 288.674,190.057 C293.567,192.29 294.205,186.398 294.205,186.398 C294.205,186.398 296.639,186.196 299.959,185.355 C303.272,184.515 301.5,179.014 299.46,177.109" fill="#15A748"/>
    <path d="M375.234,193.411 C372.971,194.698 370.374,194.244 370.374,194.244 C370.374,194.244 372.006,200.067 367.933,199.238 C363.865,198.413 363.616,194.285 365.792,193.19 C365.792,193.19 362.288,193.949 362.875,190.496 C363.466,187.044 367.62,185.57 369.067,186.68 C370.523,187.786 369.939,190.214 369.939,190.214 C369.939,190.214 371.211,185.915 373.119,187.026 C375.02,188.135 377.489,192.124 375.234,193.411 z M374.303,185.679 C371.849,184.358 370.548,188.006 370.548,188.006 C370.548,188.006 370.886,186.696 369.016,185.363 C367.151,184.034 361.667,185.982 360.8,190.27 C359.929,194.559 364.539,193.522 364.539,193.522 C361.661,194.941 361.875,200.042 367.176,200.949 C372.475,201.857 371.592,195.999 371.592,195.999 C371.592,195.999 373.894,195.182 376.884,193.523 C379.88,191.866 376.76,186.999 374.303,185.679" fill="#15A748"/>
    <path d="M397.717,157.785 C395.293,156.835 394.018,154.529 394.018,154.529 C394.018,154.529 390.514,159.457 388.598,155.776 C386.691,152.091 389.733,149.301 391.961,150.306 C391.961,150.306 389.163,148.056 392.224,146.344 C395.271,144.633 399.032,146.938 399.085,148.762 C399.127,150.585 396.879,151.66 396.879,151.66 C396.879,151.66 401.021,149.951 401.356,152.131 C401.686,154.308 400.137,158.735 397.717,157.785 z M403.145,152.204 C402.631,149.465 398.978,150.748 398.978,150.748 C398.978,150.748 400.211,150.184 400.07,147.894 C399.932,145.608 394.975,142.565 391.095,144.585 C387.208,146.608 390.912,149.541 390.912,149.541 C388.003,148.189 384.161,151.562 386.793,156.258 C389.414,160.95 393.42,156.583 393.42,156.583 C393.42,156.583 395.497,157.859 398.667,159.146 C401.841,160.433 403.669,154.948 403.145,152.204" fill="#15A748"/>
    <path d="M265.802,196.181 C268.579,232.011 326.559,251.19 386.962,218.068 C447.603,184.821 435.268,110.204 369.431,115.814 C303.596,121.433 263.187,162.435 265.802,196.181 z" fill-opacity="0" stroke="#303053" stroke-width="2.339" stroke-linecap="round" stroke-linejoin="round"/>
    <path d="M319.314,135.649 C299.243,144.432 274.212,171.418 273.437,190.856 C272.664,210.293 292.096,234.4 352.749,219.626 C413.403,204.853 432.836,146.535 399.404,131.76 C365.969,116.988 344.197,124.763 319.314,135.649 z" fill-opacity="0" stroke="#303053" stroke-width="0.992" stroke-linecap="round" stroke-linejoin="round"/>
    <path d="M380.561,207.669 C380.561,207.669 382.479,203.827 378.154,198.064 C373.837,192.305 310.946,140.454 310.946,140.454 M286.942,214.869 C286.942,214.869 281.661,206.225 287.904,200.943 C294.136,195.663 343.587,165.899 358.476,153.416 C373.358,140.932 393.522,130.852 398.327,131.813 M413.685,168.298 C413.685,168.298 412.723,160.617 403.608,160.617 C394.484,160.617 346.477,164.458 332.551,167.337 C318.625,170.221 282.623,169.259 282.623,169.259 M328.232,223.508 C328.232,223.508 324.392,215.828 328.711,201.423 C333.037,187.023 354.157,125.09 354.157,125.09" fill-opacity="0" stroke="#58361F" stroke-width="1.949"/>
    <path d="M351.567,154.547 C351.567,156.169 350.249,157.486 348.629,157.486 C347.007,157.486 345.69,156.169 345.69,154.547 C345.69,152.925 347.007,151.612 348.629,151.612 C350.249,151.612 351.567,152.925 351.567,154.547" fill="#99564B"/>
    <path d="M311.908,173.934 C311.908,175.556 310.593,176.871 308.976,176.871 C307.357,176.871 306.04,175.556 306.04,173.934 C306.04,172.313 307.357,170.997 308.976,170.997 C310.593,170.997 311.908,172.313 311.908,173.934" fill="#99564B"/>
    <path d="M300.457,204.187 C300.457,205.81 299.141,207.124 297.522,207.124 C295.897,207.124 294.583,205.81 294.583,204.187 C294.583,202.562 295.897,201.251 297.522,201.251 C299.141,201.251 300.457,202.562 300.457,204.187" fill="#99564B"/>
    <path d="M357.147,204.187 C357.147,205.81 355.833,207.124 354.208,207.124 C352.584,207.124 351.276,205.81 351.276,204.187 C351.276,202.562 352.584,201.251 354.208,201.251 C355.833,201.251 357.147,202.562 357.147,204.187" fill="#99564B"/>
    <path d="M380.942,151.612 C380.942,153.231 379.625,154.547 378.001,154.547 C376.379,154.547 375.062,153.231 375.062,151.612 C375.062,149.989 376.379,148.673 378.001,148.673 C379.625,148.673 380.942,149.989 380.942,151.612" fill="#99564B"/>
    <path d="M349.509,135.752 C349.509,137.371 348.192,138.686 346.573,138.686 C344.951,138.686 343.638,137.371 343.638,135.752 C343.638,134.128 344.951,132.812 346.573,132.812 C348.192,132.812 349.509,134.128 349.509,135.752" fill="#99564B"/>
    <path d="M400.911,164.828 C400.911,166.452 399.593,167.765 397.971,167.765 C396.354,167.765 395.04,166.452 395.04,164.828 C395.04,163.207 396.354,161.891 397.971,161.891 C399.593,161.891 400.911,163.207 400.911,164.828" fill="#99564B"/>
  </g>
</svg>
