<svg id="visual" viewBox="0 0 1024 40" width="1024" height="40" xmlns="http://www.w3.org/2000/svg" xmlns:xlink="http://www.w3.org/1999/xlink" version="1.1"><rect x="0" y="0" width="1024" height="40" fill="#2e7d32"></rect><path d="M0 28L19 25.7C38 23.3 76 18.7 114 14C152 9.3 190 4.7 227.8 5C265.7 5.3 303.3 10.7 341.2 17C379 23.3 417 30.7 455 29.7C493 28.7 531 19.3 569 18.7C607 18 645 26 682.8 29C720.7 32 758.3 30 796.2 25.7C834 21.3 872 14.7 910 12.2C948 9.7 986 11.3 1005 12.2L1024 13L1024 41L1005 41C986 41 948 41 910 41C872 41 834 41 796.2 41C758.3 41 720.7 41 682.8 41C645 41 607 41 569 41C531 41 493 41 455 41C417 41 379 41 341.2 41C303.3 41 265.7 41 227.8 41C190 41 152 41 114 41C76 41 38 41 19 41L0 41Z" fill="#f2ffdb" stroke-linecap="round" stroke-linejoin="miter"></path></svg>